<svg width="49" height="49" viewBox="0 0 49 49" fill="none" xmlns="http://www.w3.org/2000/svg">
<path d="M0 48.1133H48.1132V5.34058e-05H0V48.1133Z" fill="#496DA9"/>
<path d="M30.23 34.2596C30.23 33.4406 30.3567 32.6674 30.6083 31.9641C30.858 31.2625 31.2106 30.6464 31.6551 30.1331C32.0976 29.6216 32.6348 29.2139 33.2473 28.9229C33.8579 28.6327 34.5429 28.4858 35.2848 28.4858C36.0167 28.4858 36.6631 28.5951 37.2076 28.8109C37.7172 29.0147 38.2167 29.3122 38.6942 29.6942L37.9816 30.6437C37.629 30.3636 37.2489 30.1175 36.8513 29.91C36.3995 29.6768 35.8615 29.5583 35.2518 29.5583C34.7403 29.5583 34.2518 29.6768 33.8 29.91C33.352 30.1432 32.9562 30.4765 32.622 30.9007C32.2887 31.3222 32.0251 31.8273 31.835 32.403C31.645 32.9777 31.5495 33.6187 31.5495 34.3083C31.5495 35.0107 31.645 35.6609 31.835 36.2402C32.0251 36.8224 32.2932 37.3256 32.6321 37.7379C32.9718 38.1511 33.3786 38.478 33.8423 38.7093C34.3078 38.9426 34.8202 39.061 35.3665 39.061C35.878 39.061 36.3343 38.9683 36.7237 38.7846C37.1056 38.6047 37.3986 38.4256 37.5942 38.2539L37.6428 38.2108V34.9685H34.9689V33.9456H38.797V38.7553C38.6253 38.9123 38.4316 39.0675 38.2195 39.2162C37.9871 39.3797 37.72 39.5266 37.4252 39.6523C37.1313 39.7782 36.8026 39.8828 36.4501 39.9636C36.1011 40.0435 35.72 40.083 35.317 40.083C34.553 40.083 33.8505 39.9443 33.2271 39.6698C32.6063 39.3962 32.0646 39.0004 31.6211 38.4936C31.1767 37.9858 30.8305 37.3678 30.5927 36.6571C30.3512 35.9437 30.23 35.1374 30.23 34.2596Z" fill="white"/>
<path d="M21.2102 28.6489V39.9192H22.4149V35.2142H24.6893L27.6561 39.9192H29.117L25.9841 35.0352L26.1833 34.9883C26.5414 34.9038 26.883 34.7762 27.1971 34.6082C27.5092 34.4419 27.7828 34.2308 28.0114 33.9819C28.2392 33.734 28.4228 33.4347 28.5578 33.0921C28.6928 32.7488 28.7617 32.3585 28.7617 31.9315C28.7617 31.3659 28.6561 30.8728 28.4486 30.4642C28.2411 30.0547 27.9573 29.7131 27.6056 29.4487C27.2484 29.1806 26.8334 28.9785 26.3734 28.849C25.9069 28.7168 25.412 28.6489 24.9042 28.6489H21.2102ZM22.4149 29.7066H24.8216C25.5975 29.7066 26.2384 29.9077 26.725 30.3044C27.2227 30.7075 27.4752 31.2713 27.4752 31.9802C27.4752 32.6817 27.2218 33.2308 26.7223 33.6119C26.2356 33.9847 25.5515 34.1738 24.6911 34.1738H22.4149V29.7066Z" fill="white"/>
<path d="M20.0515 8.01248H22.3471L25.009 20.5922L28.6736 8.64512H30.4771L33.9516 20.5922C34.1233 19.9678 36.755 8.01248 36.755 8.01248H38.9578L34.9231 24.5718H33.0729L29.5396 12.1932L25.6316 24.5718H23.8043L20.0515 8.01248Z" fill="white"/>
<path d="M14.3263 28.4695C13.6082 28.4695 12.9407 28.6082 12.3456 28.8827C11.7497 29.1563 11.2319 29.5503 10.8049 30.0507C10.3742 30.5548 10.0363 31.17 9.79762 31.8798C9.55797 32.5932 9.43677 33.3939 9.43677 34.2598C9.43677 35.1193 9.54509 35.9163 9.75811 36.6298C9.97113 37.3423 10.2879 37.9621 10.6993 38.4736C11.1097 38.9832 11.6221 39.3863 12.2236 39.6719C12.825 39.9565 13.5265 40.1016 14.3098 40.1016C15.06 40.1016 15.7431 39.9565 16.3381 39.6719C16.9349 39.3872 17.4483 38.9814 17.8633 38.4653C18.282 37.9456 18.6071 37.3221 18.8293 36.6114C19.0533 35.8961 19.1672 35.0954 19.1672 34.2277C19.1672 33.3627 19.0487 32.5666 18.8146 31.8633C18.5795 31.1627 18.2434 30.552 17.8164 30.0507C17.3895 29.5503 16.8725 29.1563 16.283 28.8827C15.6917 28.6082 15.0333 28.4695 14.3263 28.4695ZM14.3098 29.5264C14.8451 29.5264 15.3437 29.6476 15.789 29.8872C16.2334 30.1269 16.6164 30.4639 16.9267 30.8881C17.2343 31.3077 17.4804 31.8101 17.6548 32.3821C17.8275 32.9523 17.9147 33.584 17.9147 34.2598C17.9147 34.9595 17.8247 35.6105 17.6457 36.1964C17.4676 36.784 17.2159 37.2946 16.9019 37.7151C16.5851 38.1403 16.2022 38.4736 15.7642 38.7077C15.3253 38.9419 14.8405 39.0612 14.3263 39.0612C13.7891 39.0612 13.2924 38.9391 12.8479 38.6995C12.4054 38.4626 12.0197 38.1255 11.702 37.6995C11.3861 37.2771 11.1382 36.7656 10.9665 36.1789C10.7929 35.5968 10.7057 34.9458 10.7057 34.2443C10.7057 33.5666 10.7902 32.9348 10.9573 32.3674C11.1253 31.7963 11.3705 31.2958 11.6855 30.878C12.0041 30.4584 12.3888 30.1259 12.8314 29.8872C13.2777 29.6476 13.7745 29.5264 14.3098 29.5264Z" fill="white"/>
<path d="M9.15576 23.1895L10.0675 21.5028C10.5836 21.9095 11.1033 22.2337 11.6267 22.4752C12.1501 22.7167 12.7075 22.8388 13.3015 22.8388C14.1298 22.8388 14.7615 22.5376 15.1995 21.9361C15.6366 21.3366 15.8561 20.5203 15.8561 19.4891V8.01311H17.9872V19.4423C17.9872 21.051 17.6209 22.3347 16.8863 23.2952C16.1517 24.2556 15.003 24.7358 13.442 24.7358C12.4733 24.7358 11.6579 24.588 10.9949 24.2914C10.3302 23.9948 9.71769 23.6275 9.15576 23.1895Z" fill="white"/>
<path d="M6.86279 38.1378H8.59825V39.8723H6.86279V38.1378Z" fill="white"/>
</svg>
