<svg width="49" height="49" viewBox="0 0 49 49" fill="none" xmlns="http://www.w3.org/2000/svg">
<path d="M48.3398 0H0.226562V48.1132H48.3398V0Z" fill="#5A3988"/>
<path d="M9.21606 31.5273H10.0011V36.8577H12.7359V37.5541H9.21606V31.5273ZM13.5083 31.5273H14.2933V37.5541H13.5083V31.5273ZM15.4834 31.5273H17.37C17.6218 31.5232 17.8731 31.553 18.117 31.6159C18.3321 31.6741 18.5341 31.773 18.7121 31.9071C18.8841 32.0427 19.0228 32.216 19.1173 32.4136C19.2234 32.6345 19.2755 32.8776 19.2692 33.1226C19.2718 33.2862 19.2461 33.449 19.1932 33.6037C19.1575 33.7322 19.0973 33.8526 19.016 33.9583C18.9474 34.0649 18.8567 34.1556 18.7501 34.2242C18.6521 34.2993 18.5459 34.363 18.4335 34.4141C18.7447 34.5116 19.0215 34.6961 19.2312 34.9459C19.4568 35.2244 19.5738 35.5753 19.5604 35.9334C19.558 36.164 19.5032 36.3909 19.4001 36.5971C19.297 36.8033 19.1483 36.9834 18.9653 37.1236C18.7641 37.2714 18.5363 37.3789 18.2943 37.4401C18.0101 37.5204 17.7158 37.5588 17.4206 37.5541H15.4834V31.5273ZM18.4715 33.1479C18.4753 33.0208 18.4525 32.8944 18.4046 32.7766C18.3566 32.6589 18.2845 32.5525 18.193 32.4642C17.9499 32.2805 17.6487 32.1906 17.3447 32.211H16.2684V34.1862H17.294C17.6016 34.2031 17.9056 34.1136 18.155 33.9329C18.269 33.8389 18.3577 33.7178 18.413 33.5807C18.4683 33.4436 18.4884 33.2948 18.4715 33.1479ZM18.7627 35.8195C18.7657 35.6778 18.7351 35.5374 18.6735 35.4098C18.6119 35.2822 18.521 35.1709 18.4082 35.0851C18.0992 34.8883 17.7355 34.7952 17.37 34.8192H16.2684V36.8704H17.446C17.7886 36.886 18.1269 36.7881 18.4082 36.5918C18.5248 36.5008 18.6178 36.3832 18.6795 36.2488C18.7412 36.1144 18.7697 35.9672 18.7627 35.8195ZM20.4087 31.5273H22.4092C22.6741 31.5282 22.9378 31.5622 23.1942 31.6286C23.436 31.6968 23.6633 31.8083 23.8653 31.9578C24.0596 32.1043 24.216 32.2953 24.3211 32.5149C24.4433 32.7627 24.5041 33.0363 24.4983 33.3125C24.5008 33.5289 24.4621 33.7437 24.3844 33.9456C24.3135 34.1233 24.2105 34.2864 24.0805 34.4267C23.9559 34.5678 23.8055 34.6838 23.6374 34.7686C23.4666 34.8621 23.2832 34.9303 23.0929 34.9712L24.7389 37.5034H23.802L22.2573 35.0978H21.1811V37.5541H20.4087V31.5273ZM22.2953 34.4014C22.6546 34.4246 23.0112 34.3265 23.3082 34.1229C23.4289 34.032 23.5255 33.9129 23.5895 33.7761C23.6535 33.6392 23.683 33.4887 23.6754 33.3379C23.6818 33.1816 23.652 33.0261 23.5883 32.8833C23.5246 32.7405 23.4287 32.6144 23.3082 32.5149C23.038 32.3142 22.7076 32.2115 22.3712 32.2237H21.1811V34.4014H22.2953ZM31.0063 31.5273H33.0068C33.2716 31.529 33.5352 31.563 33.7918 31.6286C34.0306 31.6943 34.2543 31.8061 34.4502 31.9578C34.6514 32.1004 34.8126 32.2922 34.9186 32.5149C35.0365 32.7638 35.093 33.0373 35.0832 33.3125C35.0835 33.5276 35.0493 33.7413 34.982 33.9456C34.9111 34.1233 34.8081 34.2864 34.6781 34.4267C34.5508 34.565 34.4009 34.6806 34.2349 34.7686C34.0633 34.8601 33.8802 34.9283 33.6905 34.9712L35.3365 37.5034H34.4122L32.8548 35.0471H31.7913V37.5034H31.0189L31.0063 31.5273ZM32.8928 34.4014C33.2521 34.4246 33.6088 34.3265 33.9057 34.1229C34.0264 34.032 34.123 33.9129 34.187 33.7761C34.251 33.6392 34.2805 33.4887 34.2729 33.3379C34.2794 33.1816 34.2496 33.0261 34.1859 32.8833C34.1222 32.7405 34.0263 32.6144 33.9057 32.5149C33.6317 32.3123 33.2966 32.2096 32.9561 32.2237H31.7786V34.4014H32.8928ZM37.4383 35.1231L35.3111 31.5273H36.2228L37.8434 34.3128L39.4767 31.5273H40.363L38.2106 35.1104V37.5541H37.4256L37.4383 35.1231ZM13.8881 27.3744C14.5348 27.4291 15.1851 27.3277 15.7845 27.0788C16.3838 26.8298 16.9145 26.4405 17.332 25.9436C18.1029 24.8311 18.4896 23.4975 18.4335 22.1452V10.75H16.2938V22.2338C16.3402 23.096 16.1143 23.9508 15.648 24.6775C15.4328 24.976 15.1462 25.2158 14.8145 25.375C14.4827 25.5343 14.1164 25.6079 13.7488 25.5891C13.1676 25.5897 12.5931 25.4644 12.0649 25.2219C11.5104 24.9572 10.9879 24.6301 10.5075 24.247L9.59591 25.8297C10.1603 26.2708 10.7769 26.6408 11.4318 26.9312C12.2097 27.252 13.0471 27.4031 13.8881 27.3744ZM24.2831 27.2098H26.119L30.0187 14.8396L33.5512 27.2098H35.3998L39.4008 10.6487H37.1977C37.1977 10.6487 34.5641 22.6137 34.4122 23.2341L30.9177 11.2818H29.1197L25.4479 23.2341L22.7891 10.6487H20.4847L24.2831 27.2098ZM28.9805 35.7688H26.6888L26.0557 37.5541H25.258L27.4611 31.5146H28.2081L30.4112 37.5541H29.5882L28.9805 35.7688ZM26.9673 35.0851H28.7399L27.8409 32.5529L26.9673 35.0851Z" fill="white"/>
</svg>
